<svg width="720" height="232" viewBox="0 0 720 232" fill="none" xmlns="http://www.w3.org/2000/svg">
<path d="M467.474 0.279297H466.594L466.884 231.719H467.764L467.474 0.279297Z" fill="#616363"/>
<path fill-rule="evenodd" clip-rule="evenodd" d="M608.45 169.469H571.92C562.16 169.469 554.25 161.459 554.25 151.589V80.4191C554.25 70.5391 562.16 62.5391 571.92 62.5391H702.33C712.09 62.5391 720 70.5491 720 80.4191V151.589C720 161.459 712.09 169.469 702.33 169.469H608.45Z" fill="#76C044"/>
<path d="M559.211 104.74H574.971V111.04C580.081 105.83 585.291 103.76 592.141 103.76C603.011 103.76 609.201 110.5 609.201 123.21V155.05H593.341V125.39C593.341 118.44 591.281 115.07 586.281 115.07C581.281 115.07 577.701 118.33 574.981 123V155.05H559.221V104.74H559.211Z" fill="white"/>
<path d="M539.627 84.0801C544.927 84.0801 549.017 88.1701 549.017 93.4801C549.017 98.7901 544.917 102.88 539.627 102.88C534.337 102.88 530.227 98.6601 530.227 93.4801C530.227 88.3001 534.317 84.0801 539.627 84.0801Z" fill="#76C044"/>
<path d="M548.697 104.57H530.227V155.46H548.697V104.57Z" fill="#76C044"/>
<path fill-rule="evenodd" clip-rule="evenodd" d="M659.46 96.0488C660.59 96.0488 661.69 96.3388 662.76 96.9188C663.83 97.4988 664.67 98.3289 665.27 99.3989C665.87 100.479 666.17 101.599 666.17 102.769C666.17 103.939 665.88 105.039 665.29 106.099C664.7 107.169 663.87 107.999 662.81 108.589C661.75 109.179 660.63 109.479 659.47 109.479C658.31 109.479 657.19 109.179 656.13 108.589C655.06 107.999 654.23 107.169 653.64 106.099C653.05 105.029 652.75 103.919 652.75 102.769C652.75 101.619 653.05 100.479 653.65 99.3989C654.25 98.3189 655.09 97.4988 656.16 96.9188C657.23 96.3388 658.33 96.0488 659.46 96.0488ZM664.3 99.9589C663.8 99.0589 663.1 98.3689 662.2 97.8889C661.31 97.4089 660.39 97.1688 659.45 97.1688C658.51 97.1688 657.59 97.4089 656.7 97.8889C655.81 98.3689 655.11 99.0589 654.6 99.9589C654.09 100.859 653.84 101.789 653.84 102.759C653.84 103.729 654.09 104.649 654.58 105.539C655.07 106.429 655.76 107.119 656.66 107.609C657.55 108.109 658.48 108.349 659.44 108.349C660.4 108.349 661.33 108.099 662.22 107.609C663.11 107.119 663.8 106.419 664.29 105.539C664.78 104.649 665.03 103.729 665.03 102.759C665.03 101.789 664.78 100.849 664.28 99.9589M661.61 104.499C661.86 105.549 662.03 106.269 662.18 106.559H661.18C661.06 106.349 660.89 105.699 660.69 104.769C660.47 103.729 660.06 103.339 659.18 103.309H658.27V106.559H657.3V99.1688C657.79 99.0688 658.5 98.9988 659.16 98.9988C660.2 98.9988 660.88 99.1988 661.34 99.6188C661.71 99.9388 661.93 100.449 661.93 101.039C661.93 102.019 661.3 102.679 660.52 102.939V102.969C661.09 103.169 661.43 103.709 661.62 104.489M660.95 101.139C660.95 100.169 660.25 99.7488 659.23 99.7488C658.76 99.7488 658.44 99.7889 658.27 99.8389V102.569H659.26C660.29 102.569 660.95 101.999 660.95 101.139Z" fill="white"/>
<path d="M660.382 163.04C660.382 165.43 659.932 167.52 659.042 169.45H640.692C644.052 168.48 645.842 166.69 645.842 164.16C645.842 160.58 641.662 158.27 634.212 158.27C626.232 158.27 622.132 160.43 622.132 164.01C622.132 166.69 623.772 168.48 626.982 169.45H608.492C607.892 168.03 607.602 166.54 607.602 164.9C607.602 159.01 612.152 154.68 620.952 152.37C617.072 151.18 615.062 149.16 615.062 146.18C615.062 142.3 617.892 139.77 623.562 138.5C614.682 135.89 610.882 131.64 610.212 123.36C610.062 122.09 610.062 118.96 611.182 115.98C615.652 103.68 638.552 97.2596 638.552 97.2596L636.912 94.3496L647.952 97.7097L646.162 107.7L643.852 105.16C632.962 108.81 627.442 114.33 625.732 118.66C624.162 122.84 625.132 131.41 633.262 131.56C641.392 131.71 644.602 125.15 642.212 119.7C639.752 114.18 632.372 114.55 632.372 114.55L642.812 107.39C645.312 108.15 647.412 109.15 649.132 110.19C653.962 113.1 657.472 118.06 657.502 123.7V123.8C657.502 132.97 652.062 138.27 641.392 140.13C634.452 141.32 630.052 140.21 630.052 144.16C630.052 147.52 634.452 147.07 643.922 148.26C654.732 149.68 660.402 154.9 660.402 163.03" fill="white"/>
<path d="M120.21 179.5L99.9403 179.47V184.03C101.82 182.49 103.96 181.73 106.35 181.73C109.2 181.73 111.64 182.74 113.68 184.74C115.72 186.75 116.74 189.17 116.73 192.02C116.73 194.87 115.73 197.39 113.74 199.58C111.75 201.77 109.34 202.87 106.49 202.86C104.91 202.86 103.37 202.48 101.87 201.72V197.08C103.14 198.28 104.59 198.87 106.21 198.88C107.98 198.88 109.53 198.21 110.86 196.85C112.19 195.5 112.86 193.94 112.86 192.19C112.86 190.47 112.21 188.98 110.9 187.69C109.59 186.41 108.07 185.77 106.34 185.76C104.8 185.76 103.37 186.3 102.06 187.37C100.63 188.49 99.9203 189.79 99.9203 191.29L99.9003 204.58H95.9103V200.53C94.0303 202.07 91.8903 202.83 89.5003 202.83C86.6503 202.83 84.2103 201.81 82.1703 199.79C80.1303 197.77 79.1103 195.33 79.1203 192.48C79.1203 189.63 80.1203 187.12 82.1003 184.95C84.0903 182.78 86.5003 181.69 89.3503 181.7C91.0803 181.7 92.7803 182.17 94.4303 183.09V188.11C93.1503 186.53 91.5203 185.74 89.5503 185.74C87.7303 185.74 86.1803 186.38 84.9003 187.67C83.6203 188.96 82.9803 190.51 82.9803 192.32C82.9803 194.21 83.5903 195.76 84.8303 196.97C86.0703 198.19 87.6303 198.79 89.5303 198.8C91.3503 198.8 92.8703 198.24 94.0903 197.1C95.3103 195.97 95.9203 194.49 95.9203 192.68L95.9403 179.45L76.8203 179.42V176.76L120.2 176.82V179.48L120.21 179.5Z" fill="#636467"/>
<path d="M129.852 179.51H125.352L125.312 204.69L121.332 204.68L121.362 179.5H118.992L119.002 176.84L129.862 176.85L129.852 179.51Z" fill="#636467"/>
<path d="M149.378 179.54L128.758 179.51V176.85L149.378 176.88V179.54ZM147.838 200.39C145.948 202.04 143.728 202.87 141.188 202.86C138.378 202.86 135.948 201.88 133.918 199.93C131.878 197.98 130.858 195.6 130.868 192.79C130.868 189.98 131.888 187.52 133.908 185.4C135.928 183.29 138.348 182.23 141.158 182.23C143.118 182.23 145.008 182.85 146.818 184.09V189.75C145.658 187.44 143.808 186.28 141.268 186.28C139.458 186.28 137.938 186.88 136.698 188.09C135.468 189.3 134.848 190.81 134.838 192.62C134.838 194.39 135.448 195.89 136.678 197.13C137.908 198.36 139.408 198.98 141.178 198.98C144.448 198.98 146.668 197.06 147.828 193.21V200.37L147.838 200.39Z" fill="#636467"/>
<path d="M181.432 179.591H176.692L176.652 204.711H172.492V199.621C170.182 201.391 167.512 202.271 164.502 202.271C161.722 202.271 159.112 201.491 156.692 199.951C154.142 198.371 152.392 196.321 151.432 193.821C150.582 191.591 150.162 189.751 150.162 188.331C150.162 187.981 150.182 187.641 150.222 187.291L154.382 186.311C154.262 186.811 154.212 187.271 154.212 187.701C154.212 189.091 154.672 190.181 155.592 190.971C156.512 191.761 157.692 192.161 159.112 192.161C160.962 192.161 162.502 191.561 163.732 190.351C164.962 189.141 165.582 187.611 165.592 185.761C165.592 184.721 165.282 183.491 164.672 182.061C163.942 180.401 163.132 179.571 162.252 179.571L148.102 179.551V176.891L181.432 176.941V179.601V179.591ZM172.532 179.581H167.792C168.832 181.421 169.342 183.351 169.342 185.351C169.342 188.241 168.422 190.691 166.582 192.711C164.752 194.731 162.412 195.741 159.562 195.731C158.712 195.731 157.832 195.611 156.902 195.381C158.872 197.461 161.152 198.501 163.732 198.511C165.592 198.511 167.422 198.071 169.242 197.191C171.412 196.161 172.492 194.811 172.492 193.161L172.512 179.571L172.532 179.581Z" fill="#636467"/>
<path d="M251.317 179.69H241.907C243.677 181.41 244.557 183.78 244.557 186.78C244.557 187.86 244.417 188.9 244.147 189.9H249.407V193.26H243.687V191.29C242.417 194.25 240.007 196.18 236.457 197.06L245.537 204.81H239.507L225.547 192.77L228.177 189.92C229.897 191.46 230.837 192.27 230.997 192.35C232.107 193.17 233.217 193.58 234.317 193.59C235.997 193.59 237.477 192.96 238.767 191.69C240.047 190.42 240.687 188.94 240.697 187.25C240.697 183.67 239.397 181.15 236.797 179.68L223.727 179.66V177L251.337 177.04V179.7L251.317 179.69Z" fill="#636467"/>
<path d="M293.203 179.75L272.932 179.72V184.28C274.812 182.74 276.952 181.98 279.342 181.98C282.192 181.98 284.633 182.99 286.673 184.99C288.713 187 289.733 189.42 289.723 192.27C289.723 195.12 288.723 197.64 286.733 199.83C284.743 202.02 282.333 203.12 279.483 203.11C277.903 203.11 276.362 202.73 274.862 201.97V197.33C276.132 198.53 277.583 199.12 279.203 199.13C280.973 199.13 282.523 198.46 283.853 197.1C285.183 195.75 285.853 194.19 285.853 192.44C285.853 190.72 285.203 189.22 283.893 187.94C282.583 186.66 281.062 186.02 279.332 186.01C277.792 186.01 276.362 186.55 275.052 187.62C273.622 188.74 272.913 190.04 272.913 191.54L272.893 204.83H268.902V200.78C267.022 202.32 264.882 203.08 262.492 203.08C259.642 203.08 257.203 202.06 255.163 200.04C253.123 198.02 252.102 195.58 252.112 192.73C252.112 189.88 253.112 187.37 255.092 185.2C257.082 183.03 259.492 181.94 262.342 181.95C264.072 181.95 265.773 182.42 267.423 183.34V188.36C266.143 186.78 264.513 185.99 262.543 185.99C260.723 185.99 259.173 186.63 257.893 187.92C256.613 189.21 255.973 190.76 255.973 192.57C255.973 194.46 256.583 196.01 257.823 197.22C259.063 198.44 260.622 199.04 262.522 199.05C264.342 199.05 265.862 198.49 267.082 197.35C268.302 196.22 268.913 194.74 268.913 192.93L268.932 179.7L249.812 179.67V177.01L293.193 177.07V179.73L293.203 179.75Z" fill="#636467"/>
<path d="M260.242 206.979H263.942C264.442 208.599 265.422 210.009 266.882 211.209C268.342 212.409 269.902 213.009 271.562 213.009C273.182 213.009 273.992 212.279 273.992 210.819C273.992 210.279 273.802 209.779 273.412 209.319C273.032 208.859 272.562 208.629 272.022 208.619C270.712 208.619 269.882 209.639 269.532 211.679L268.842 211.269V206.999C269.702 205.959 270.772 205.439 272.082 205.449C273.512 205.449 274.782 205.989 275.892 207.069C277.012 208.149 277.562 209.399 277.562 210.829C277.562 212.489 276.952 213.779 275.742 214.699C274.532 215.619 273.072 216.079 271.382 216.079C268.762 216.079 266.422 215.209 264.342 213.469C262.262 211.729 260.902 209.579 260.252 206.989" fill="#636467"/>
<path d="M328.143 179.8H323.693L323.653 204.8H319.663L319.693 187.7C317.883 187.74 316.333 188.4 315.043 189.7C313.753 191 313.103 192.55 313.103 194.34C313.103 195.26 313.293 196.16 313.673 197.04L309.403 195.03C309.403 193.5 309.583 192.2 309.923 191.13C308.663 188.83 306.743 187.68 304.183 187.68C302.303 187.68 300.713 188.32 299.413 189.6C298.113 190.88 297.453 192.46 297.453 194.34C297.453 196.22 298.103 197.8 299.403 199.09C300.703 200.38 302.293 201.02 304.173 201.02C306.163 201.02 307.833 200.24 309.173 198.66V203.35C307.473 204.3 305.733 204.78 303.963 204.77C301.153 204.77 298.713 203.7 296.663 201.56C294.603 199.43 293.583 196.94 293.583 194.1C293.583 191.26 294.633 188.85 296.713 186.88C298.793 184.91 301.263 183.92 304.113 183.92C306.883 183.92 309.273 184.87 311.273 186.76V188.44C313.313 185.48 316.133 183.98 319.713 183.95V179.79L291.883 179.75V177.09L328.163 177.14V179.8H328.143Z" fill="#636467"/>
<path d="M133.002 226.079C132.422 225.819 131.972 225.299 131.672 224.519V215.619C132.212 215.649 132.662 216.169 133.012 217.179V226.069L133.002 226.079Z" fill="#616262"/>
<path d="M137.283 226.079C136.703 225.819 136.253 225.299 135.953 224.519V215.619C136.493 215.649 136.943 216.169 137.293 217.179V226.069L137.283 226.079Z" fill="#616262"/>
<path d="M151.807 217.599H149.947V226.019L148.397 224.329V221.059L145.777 220.509C145.667 220.479 145.567 220.459 145.467 220.459C145.047 220.459 144.837 220.669 144.837 221.079C144.837 221.289 144.887 221.519 144.997 221.779C145.167 222.169 145.637 223.059 146.407 224.459C147.177 225.859 147.627 226.649 147.777 226.839C147.807 226.959 147.777 227.049 147.667 227.119C147.567 227.189 147.437 227.229 147.307 227.219C147.227 227.219 147.167 227.209 147.117 227.189C146.857 226.849 146.257 225.859 145.307 224.219C144.247 222.389 143.667 221.239 143.567 220.769C143.517 220.519 143.487 220.309 143.487 220.119C143.487 219.319 144.007 218.919 145.057 218.919C145.217 218.919 145.387 218.929 145.557 218.949C145.587 218.949 146.537 219.189 148.407 219.669V217.599H142.817L142.297 216.439H151.287L151.807 217.599Z" fill="#616262"/>
<path d="M161.643 217.609H159.582V225.999C158.922 225.089 158.272 224.179 157.612 223.269C156.812 222.189 156.193 221.469 155.733 221.119C155.673 221.069 155.613 221.019 155.533 220.979C155.523 221.309 155.482 221.589 155.402 221.819C155.022 222.679 154.452 223.109 153.682 223.109C153.312 223.109 152.973 223.019 152.643 222.829C151.943 222.149 151.592 221.439 151.592 220.709C151.592 220.259 151.743 219.869 152.033 219.539C152.323 219.209 152.682 219.049 153.122 219.049C153.452 219.049 153.813 219.139 154.203 219.309C154.083 218.649 153.862 218.079 153.522 217.589H150.832L150.312 216.449L161.052 216.469L161.612 217.599L161.643 217.609ZM154.283 220.389C154.013 220.309 153.773 220.279 153.573 220.279C153.043 220.279 152.773 220.529 152.763 221.019C152.763 221.099 152.773 221.179 152.793 221.259C152.823 221.489 152.932 221.699 153.112 221.899C153.292 222.099 153.483 222.199 153.663 222.199C153.933 222.199 154.113 221.969 154.203 221.499C154.253 221.229 154.283 220.859 154.283 220.379M158.112 217.599H154.932C155.252 218.259 155.453 219.079 155.533 220.079C155.733 220.209 155.963 220.359 156.193 220.539C156.693 221.059 157.323 221.749 158.103 222.599V217.609L158.112 217.599Z" fill="#616262"/>
<path d="M172.813 217.639H170.953V226.079C170.243 225.149 169.583 224.309 168.983 223.569C167.533 221.799 166.463 220.629 165.763 220.079C165.153 220.559 164.313 220.879 163.223 221.069C163.683 221.369 164.413 222.209 165.403 223.589C166.383 224.969 166.983 225.979 167.183 226.629C167.203 226.979 167.033 227.179 166.663 227.239C165.543 225.269 163.743 223.039 161.263 220.519C163.933 219.909 165.263 219.099 165.273 218.099C165.273 217.949 165.233 217.789 165.163 217.629H160.543L160.023 216.469L172.303 216.489L172.823 217.639H172.813ZM169.483 223.079V217.639H166.593C166.633 217.869 166.633 218.179 166.573 218.539C166.503 218.989 166.403 219.319 166.243 219.529C166.843 219.919 167.923 221.099 169.483 223.079Z" fill="#616262"/>
<path d="M176.05 217.63H174.09L174.08 226.1L172.6 224.37L172.61 217.63H171.84L171.32 216.49L175.48 216.5L176.05 217.63Z" fill="#616262"/>
<path d="M173.408 216.54H172.547C172.297 216.16 171.927 215.79 171.427 215.44C170.867 215.03 170.377 214.82 169.967 214.82C169.447 214.82 169.238 214.82 169.318 214.8C169.108 214.82 168.868 214.67 168.598 214.35C168.328 214.03 168.188 213.77 168.188 213.58C168.188 213.48 168.237 213.43 168.337 213.43C168.387 213.43 168.457 213.43 168.547 213.46C168.857 213.55 169.157 213.6 169.427 213.6C169.517 213.6 169.627 213.6 169.767 213.6H170.057C170.417 213.6 170.838 213.8 171.318 214.2C171.898 214.69 172.598 215.47 173.408 216.54Z" fill="#616262"/>
<path d="M185.869 217.65H183.809V226.04C183.149 225.13 182.499 224.22 181.839 223.31C181.039 222.23 180.419 221.51 179.959 221.17C179.899 221.12 179.839 221.07 179.759 221.03C179.749 221.36 179.709 221.64 179.629 221.87C179.249 222.73 178.679 223.16 177.909 223.16C177.539 223.16 177.199 223.07 176.869 222.88C176.169 222.2 175.819 221.49 175.819 220.76C175.819 220.31 175.969 219.92 176.259 219.59C176.549 219.26 176.909 219.1 177.349 219.1C177.679 219.1 178.039 219.19 178.429 219.36C178.309 218.7 178.089 218.13 177.749 217.64H175.059L174.539 216.5L185.279 216.52L185.839 217.65H185.869ZM178.509 220.43C178.239 220.35 177.999 220.32 177.799 220.32C177.269 220.32 176.999 220.57 176.989 221.06C176.989 221.14 176.999 221.22 177.019 221.3C177.049 221.53 177.159 221.74 177.339 221.94C177.519 222.14 177.709 222.24 177.889 222.24C178.159 222.24 178.339 222.01 178.429 221.54C178.479 221.27 178.509 220.9 178.509 220.42M182.339 217.64H179.159C179.479 218.3 179.679 219.12 179.759 220.12C179.959 220.25 180.189 220.4 180.419 220.58C180.919 221.1 181.549 221.79 182.329 222.64V217.65L182.339 217.64Z" fill="#616262"/>
<path d="M188.933 217.65H186.973L186.963 226.12L185.493 224.39L185.503 217.65H184.723L184.203 216.51L188.373 216.52L188.933 217.65Z" fill="#616262"/>
<path d="M200.627 217.68H192.137L191.617 216.52H200.057L200.617 217.68H200.627ZM200.167 223.38C200.127 223.22 199.587 222.579 198.547 221.469C197.407 220.249 196.647 219.64 196.267 219.64C196.147 219.64 196.077 219.7 196.037 219.83C196.467 220.31 196.847 220.909 197.187 221.609C197.567 222.399 197.757 223.07 197.757 223.65C197.757 224.62 197.207 225.09 196.117 225.07C195.477 225.06 194.807 224.45 194.097 223.25C193.487 222.24 193.097 221.33 192.947 220.51C192.917 220.38 192.947 220.269 193.017 220.169C193.097 220.069 193.197 220.02 193.317 220.02C193.487 220.02 193.617 220.12 193.687 220.33C193.947 221.04 194.257 221.7 194.607 222.31C195.127 223.17 195.587 223.58 195.987 223.56C196.317 223.55 196.487 223.36 196.487 222.99C196.487 222.58 196.287 221.969 195.887 221.159C195.857 221.119 195.597 220.66 195.127 219.78C195.077 219.67 195.047 219.54 195.047 219.39C195.047 218.97 195.287 218.709 195.777 218.609C195.867 218.589 195.957 218.58 196.057 218.58C197.137 218.58 198.437 219.649 199.967 221.789L200.157 223.359L200.167 223.38Z" fill="#616262"/>
<path d="M208.677 217.699H206.737V226.079C206.437 225.749 205.617 225.049 204.267 223.949C202.857 222.809 201.827 222.039 201.177 221.629C200.497 221.209 200.157 220.809 200.157 220.449C200.157 219.999 200.597 219.719 201.467 219.619C201.867 219.599 202.317 219.509 202.827 219.349C203.037 219.309 203.137 219.209 203.137 219.059C203.137 218.759 202.817 218.299 202.187 217.699H199.547L199.047 216.549H208.147L208.677 217.709V217.699ZM205.167 217.699H203.387C204.097 218.469 204.457 219.069 204.457 219.479C204.457 219.669 204.367 219.809 204.197 219.899C203.897 220.039 203.357 220.189 202.577 220.349C201.997 220.469 201.697 220.599 201.697 220.739C201.697 220.899 201.947 221.139 202.437 221.449C203.087 222.009 203.987 222.739 205.157 223.629V217.699H205.167Z" fill="#616262"/>
<path d="M212.074 217.679H210.114L210.094 226.159L208.624 224.419L208.634 217.679H207.854L207.344 216.539L211.504 216.549L212.074 217.679Z" fill="#616262"/>
<path d="M209.431 216.6H208.571C208.321 216.22 207.951 215.85 207.451 215.5C206.891 215.09 206.401 214.88 205.991 214.88C205.471 214.88 205.261 214.88 205.341 214.86C205.131 214.88 204.891 214.73 204.621 214.41C204.351 214.09 204.211 213.83 204.211 213.64C204.211 213.54 204.261 213.49 204.361 213.49C204.411 213.49 204.481 213.5 204.571 213.52C204.881 213.61 205.181 213.66 205.451 213.66H205.791C205.931 213.66 206.031 213.66 206.081 213.66C206.441 213.66 206.861 213.86 207.341 214.26C207.921 214.75 208.621 215.53 209.431 216.6Z" fill="#616262"/>
<path d="M217.71 216.641H216.95C216.64 216.391 216.34 216.171 216.04 215.971C215.35 215.481 214.77 215.151 214.31 214.981C213.89 214.831 213.54 214.751 213.26 214.751C212.76 214.751 212.51 214.961 212.51 215.401C212.51 215.521 212.53 215.651 212.57 215.801C212.59 215.901 212.71 216.151 212.94 216.551H214.64L215.16 217.701H213.31V226.111L211.79 224.421V217.701H211.09L210.57 216.551H211.88C211.4 215.871 211.17 215.301 211.17 214.831C211.17 214.151 211.62 213.811 212.52 213.811C212.84 213.811 213.17 213.861 213.51 213.961C214.7 214.291 216.09 215.181 217.7 216.641" fill="#616262"/>
<path d="M223.252 217.699H221.392V226.119L219.842 224.429V221.159L217.222 220.609C217.112 220.579 217.012 220.559 216.912 220.559C216.492 220.559 216.282 220.769 216.282 221.179C216.282 221.389 216.332 221.619 216.442 221.879C216.612 222.269 217.082 223.159 217.852 224.559C218.622 225.959 219.072 226.749 219.222 226.939C219.252 227.059 219.222 227.149 219.112 227.219C219.012 227.289 218.882 227.329 218.752 227.319C218.672 227.319 218.612 227.309 218.562 227.289C218.302 226.949 217.702 225.959 216.752 224.319C215.692 222.489 215.112 221.339 215.012 220.869C214.962 220.619 214.932 220.409 214.932 220.219C214.932 219.419 215.452 219.019 216.502 219.019C216.662 219.019 216.832 219.029 217.002 219.049C217.032 219.049 217.982 219.289 219.852 219.769V217.699H214.262L213.742 216.539H222.732L223.252 217.699Z" fill="#616262"/>
<path d="M231.429 217.709H229.579V226.179L228.059 224.389V217.699H226.009C226.229 217.879 226.469 218.409 226.729 219.289C226.989 220.159 227.129 220.909 227.119 221.509C227.119 222.149 226.939 222.649 226.579 223.009C226.219 223.369 225.729 223.539 225.089 223.499C224.409 223.469 223.859 223.189 223.459 222.669C223.099 222.229 222.929 221.719 222.929 221.149C222.929 220.779 223.019 220.479 223.199 220.229C223.379 219.989 223.629 219.869 223.949 219.869C224.289 219.869 224.669 220.009 225.099 220.289C225.179 220.199 225.239 220.159 225.299 220.159C225.459 220.159 225.539 220.339 225.539 220.709C225.539 221.129 225.409 221.429 225.149 221.599C224.859 221.429 224.609 221.339 224.409 221.339C224.119 221.339 223.969 221.479 223.969 221.759C223.969 221.949 224.059 222.139 224.229 222.309C224.399 222.479 224.629 222.569 224.909 222.569C225.029 222.569 225.149 222.559 225.269 222.519C225.719 222.389 225.949 221.779 225.949 220.669C225.949 219.269 225.589 218.269 224.849 217.689H222.309L221.789 216.549H230.909L231.429 217.699V217.709Z" fill="#616262"/>
<path d="M229.76 213.98C229.81 213.97 229.86 213.96 229.89 213.96C230 213.96 230.05 214.03 230.05 214.17C230.05 214.35 229.98 214.56 229.83 214.81C229.68 215.05 229.55 215.15 229.43 215.11C229.1 214.99 228.86 214.93 228.71 214.93C228.48 214.93 228.37 215.13 228.37 215.54C228.37 215.95 228.45 216.32 228.61 216.68L227.9 216.74C227.63 216.19 227.5 215.62 227.5 215.04C227.5 214.59 227.64 214.23 227.92 213.97C228.17 213.75 228.48 213.65 228.84 213.65C229.22 213.65 229.53 213.76 229.76 213.97" fill="#616262"/>
<path d="M241.283 217.73H239.223V226.12C238.563 225.21 237.913 224.3 237.253 223.39C236.453 222.31 235.833 221.59 235.373 221.25C235.313 221.2 235.253 221.15 235.173 221.11C235.163 221.44 235.123 221.72 235.043 221.95C234.663 222.81 234.093 223.24 233.323 223.24C232.953 223.24 232.613 223.15 232.283 222.96C231.583 222.28 231.233 221.57 231.233 220.84C231.233 220.39 231.383 219.99 231.673 219.67C231.963 219.34 232.323 219.18 232.763 219.18C233.093 219.18 233.453 219.27 233.843 219.44C233.723 218.78 233.503 218.21 233.163 217.72H230.473L229.953 216.58L240.693 216.6L241.253 217.74L241.283 217.73ZM233.923 220.51C233.653 220.43 233.413 220.4 233.213 220.4C232.683 220.4 232.413 220.65 232.403 221.14C232.403 221.22 232.413 221.3 232.433 221.38C232.463 221.61 232.573 221.82 232.753 222.02C232.933 222.22 233.123 222.32 233.303 222.32C233.573 222.32 233.753 222.09 233.843 221.62C233.893 221.35 233.923 220.98 233.923 220.5M237.753 217.72H234.573C234.893 218.38 235.093 219.2 235.173 220.2C235.373 220.33 235.603 220.48 235.833 220.65C236.333 221.17 236.963 221.86 237.743 222.71V217.72H237.753Z" fill="#616262"/>
<path d="M249.138 217.759H247.198V226.129C246.898 225.809 246.078 225.099 244.728 223.999C243.318 222.859 242.288 222.089 241.638 221.679C240.958 221.259 240.618 220.859 240.618 220.499C240.618 220.049 241.058 219.769 241.928 219.679C242.328 219.659 242.778 219.569 243.288 219.409C243.498 219.369 243.598 219.269 243.598 219.119C243.598 218.819 243.278 218.359 242.648 217.759H240.008L239.508 216.609H248.608L249.138 217.779V217.759ZM245.628 217.759H243.848C244.558 218.539 244.918 219.129 244.918 219.539C244.918 219.729 244.828 219.869 244.658 219.959C244.358 220.099 243.818 220.249 243.038 220.409C242.458 220.529 242.158 220.659 242.158 220.799C242.158 220.959 242.408 221.199 242.898 221.509C243.548 222.069 244.448 222.799 245.618 223.689V217.759H245.628Z" fill="#616262"/>
<path d="M251.723 224.56C251.723 224.78 251.643 224.96 251.473 225.1C251.303 225.25 251.103 225.32 250.863 225.32C250.633 225.32 250.443 225.25 250.273 225.1C250.103 224.95 250.023 224.77 250.023 224.56C250.023 224.36 250.103 224.18 250.273 224.04C250.443 223.89 250.643 223.82 250.863 223.82C251.103 223.82 251.303 223.89 251.473 224.04C251.643 224.19 251.723 224.36 251.723 224.57M251.723 219.35C251.723 219.56 251.643 219.73 251.473 219.88C251.303 220.03 251.103 220.1 250.863 220.1C250.623 220.1 250.443 220.03 250.273 219.88C250.103 219.73 250.023 219.56 250.023 219.35C250.023 219.14 250.103 218.97 250.273 218.82C250.443 218.67 250.633 218.59 250.863 218.59C251.103 218.59 251.303 218.67 251.473 218.82C251.643 218.97 251.723 219.15 251.723 219.35Z" fill="#616262"/>
<path d="M260.057 226.259C259.477 225.999 259.027 225.479 258.727 224.699V215.799C259.267 215.829 259.717 216.349 260.067 217.359V226.249L260.057 226.259Z" fill="#616262"/>
<path d="M264.338 226.271C263.758 226.011 263.308 225.491 263.008 224.711V215.811C263.548 215.841 263.998 216.361 264.348 217.371V226.261L264.338 226.271Z" fill="#616262"/>
<path d="M214.546 197.629H190.656L202.386 176.959L214.546 197.629ZM193.496 195.969H211.646L202.406 180.259L193.496 195.969Z" fill="#E74133"/>
<path d="M202.801 204.6L190.641 183.93H214.531L202.801 204.6ZM193.531 185.58L202.771 201.29L211.681 185.58H193.531Z" fill="#E74133"/>
<path d="M198.463 189.639C198.563 189.599 198.673 189.569 198.773 189.529C198.803 189.519 198.823 189.459 198.823 189.419C198.823 189.159 198.833 189.159 199.063 189.089C199.203 189.049 199.243 188.979 199.233 188.849C199.223 188.619 199.233 188.619 199.463 188.589C199.523 188.589 199.593 188.569 199.653 188.569C199.713 188.569 199.773 188.569 199.853 188.569C199.853 188.419 199.853 188.279 199.853 188.139C199.853 187.959 199.893 187.929 200.063 187.939C201.043 188.039 201.913 188.369 202.573 189.129C202.573 189.129 202.583 189.139 202.593 189.139C202.763 188.989 202.923 188.819 203.103 188.679C203.703 188.209 204.403 187.999 205.153 187.929C205.313 187.919 205.353 187.959 205.353 188.109C205.353 188.249 205.353 188.389 205.353 188.539C205.503 188.549 205.643 188.569 205.783 188.579C205.953 188.599 205.993 188.619 205.973 188.789C205.953 188.959 206.013 189.049 206.183 189.089C206.333 189.119 206.403 189.209 206.383 189.359C206.363 189.449 206.393 189.519 206.503 189.539C206.583 189.559 206.663 189.599 206.743 189.619V193.459C206.263 193.219 205.743 193.139 205.223 193.099C204.483 193.049 203.743 193.079 203.023 193.219C202.723 193.279 202.463 193.279 202.173 193.219C201.453 193.079 200.713 193.049 199.973 193.099C199.453 193.139 198.933 193.219 198.453 193.459V189.619L198.463 189.639ZM200.083 191.849C201.003 191.949 201.823 192.259 202.493 192.939V192.749C202.493 191.679 202.493 190.609 202.493 189.529C202.493 189.399 202.453 189.309 202.373 189.219C201.963 188.759 201.453 188.459 200.863 188.299C200.613 188.229 200.353 188.189 200.073 188.129V191.839L200.083 191.849ZM202.713 192.939C203.053 192.599 203.423 192.349 203.833 192.169C204.243 191.989 204.673 191.899 205.113 191.849V188.159C205.003 188.169 204.903 188.179 204.803 188.199C204.073 188.329 203.413 188.619 202.893 189.159C202.773 189.289 202.683 189.419 202.713 189.609C202.723 189.679 202.713 189.759 202.713 189.829V192.939ZM201.563 192.519C201.563 192.519 201.483 192.469 201.433 192.449C200.993 192.229 200.533 192.119 200.043 192.069C199.843 192.049 199.843 192.049 199.843 191.839V188.769C199.703 188.779 199.573 188.799 199.453 188.809V192.189C200.193 192.099 200.883 192.269 201.553 192.519M205.743 192.189V188.809C205.613 188.799 205.493 188.789 205.353 188.779V188.989C205.353 189.929 205.353 190.879 205.353 191.819C205.353 191.859 205.353 191.889 205.353 191.929C205.353 192.019 205.313 192.069 205.213 192.079C205.073 192.079 204.943 192.109 204.803 192.129C204.393 192.199 204.003 192.319 203.643 192.539C204.313 192.269 205.003 192.109 205.743 192.189ZM205.983 189.279V192.249C205.983 192.419 205.943 192.449 205.793 192.429C205.413 192.369 205.043 192.379 204.673 192.459C204.423 192.519 204.173 192.599 203.923 192.669V192.719C204.683 192.569 205.423 192.539 206.153 192.789C206.153 192.759 206.163 192.739 206.163 192.729C206.163 191.629 206.163 190.529 206.163 189.429C206.163 189.309 206.093 189.299 205.993 189.279M201.293 192.699C200.703 192.459 200.103 192.329 199.473 192.419C199.263 192.449 199.223 192.429 199.223 192.219V189.279C199.083 189.289 199.043 189.349 199.043 189.469C199.043 190.529 199.043 191.589 199.043 192.649C199.043 192.689 199.043 192.739 199.043 192.789C199.783 192.529 200.523 192.569 201.273 192.699" fill="#E74133"/>
<path d="M259.821 84.1994L230.951 151.659C229.331 155.719 225.741 158.389 221.731 159.019C220.571 159.199 219.371 159.219 218.181 159.049C218.071 159.049 217.951 159.029 217.841 159.019C213.541 158.609 209.591 155.919 207.761 151.659L160.711 34.8594H187.641L219.111 116.629L246.811 51.6494L259.811 84.1894L259.821 84.1994Z" fill="#0D68B1"/>
<path d="M336.082 4.67969V4.6897L329.452 20.1097L323.102 34.8697L269.702 159.03H242.922L274.792 84.4897L274.912 84.1897L255.202 34.8697L249.292 20.1097L243.132 4.6897H269.632L275.762 20.1097L281.622 34.8697L288.592 52.4297L288.612 52.4897L296.232 34.8697L302.612 20.1097L309.282 4.6897L336.082 4.67969Z" fill="#4AAC48"/>
<path d="M404.862 159.031H377.552L346.402 79.0705L311.322 159.031H284.742L334.732 42.5405C337.212 36.2905 344.292 33.2505 350.542 35.7405L350.832 35.8605C353.462 36.9105 355.492 38.6805 356.792 40.8405C357.262 41.5105 357.672 42.2505 358.012 43.0305L404.862 159.041V159.031Z" fill="#4B4B4D"/>
<path d="M195.823 159.029H168.513L137.363 79.0692L102.283 159.029H75.7031L83.9631 139.799L125.693 42.5392C127.593 37.7692 132.163 34.8691 137.003 34.8691C138.503 34.8691 140.023 35.1491 141.503 35.7391L141.793 35.8591C144.423 36.9091 146.453 38.6791 147.753 40.8391C148.223 41.5091 148.633 42.2491 148.973 43.0291L195.823 159.039V159.029Z" fill="#E74133"/>
<path d="M75.01 34.8694L24.71 88.5295L24.83 4.68945H0.220001L0 159.029H24.6L24.65 124.539C24.84 124.359 25.02 124.169 25.2 123.969L38.3 110.019L66.44 159.029H95.06L84.06 139.979L83.96 139.799L55.92 91.2595L108.84 34.8795H75.02L75.01 34.8694Z" fill="#F8A124"/>
</svg>
